<?xml version="1.0" encoding="utf-8" standalone="no"?>
<!DOCTYPE svg PUBLIC "-//W3C//DTD SVG 1.1//EN"
  "http://www.w3.org/Graphics/SVG/1.1/DTD/svg11.dtd">
<svg xmlns:xlink="http://www.w3.org/1999/xlink" width="720pt" height="432pt" viewBox="0 0 720 432" xmlns="http://www.w3.org/2000/svg" version="1.1">
 <metadata>
  <rdf:RDF xmlns:dc="http://purl.org/dc/elements/1.1/" xmlns:cc="http://creativecommons.org/ns#" xmlns:rdf="http://www.w3.org/1999/02/22-rdf-syntax-ns#">
   <cc:Work>
    <dc:type rdf:resource="http://purl.org/dc/dcmitype/StillImage"/>
    <dc:date>2026-01-13T18:19:37.534346</dc:date>
    <dc:format>image/svg+xml</dc:format>
    <dc:creator>
     <cc:Agent>
      <dc:title>Matplotlib v3.10.8, https://matplotlib.org/</dc:title>
     </cc:Agent>
    </dc:creator>
   </cc:Work>
  </rdf:RDF>
 </metadata>
 <defs>
  <style type="text/css">*{stroke-linejoin: round; stroke-linecap: butt}</style>
 </defs>
 <g id="figure_1">
  <g id="patch_1">
   <path d="M 0 432
L 720 432
L 720 0
L 0 0
z
" style="fill: #ffffff"/>
  </g>
  <g id="axes_1">
   <g id="patch_2">
    <path d="M 90 384.48
L 648 384.48
L 648 51.84
L 90 51.84
z
" style="fill: #ffffff"/>
   </g>
   <g id="matplotlib.axis_1">
    <g id="xtick_1">
     <g id="line2d_1">
      <path d="M 145.203209 384.48
L 145.203209 51.84
" clip-path="url(#p45157ff51b)" style="fill: none; stroke-dasharray: 2.96,1.28; stroke-dashoffset: 0; stroke: #b0b0b0; stroke-opacity: 0.6; stroke-width: 0.8"/>
     </g>
     <g id="line2d_2">
      <defs>
       <path id="m3d1c97577e" d="M 0 0
L 0 3.5
" style="stroke: #000000; stroke-width: 0.8"/>
      </defs>
      <g>
       <use xlink:href="#m3d1c97577e" x="145.203209" y="384.48" style="stroke: #000000; stroke-width: 0.8"/>
      </g>
     </g>
     <g id="text_1">
      <!-- $\mathdefault{2^{1}}$ -->
      <g transform="translate(139.603209 399.078438) scale(0.1 -0.1)">
       <defs>
        <path id="DejaVuSans-32" d="M 1228 531
L 3431 531
L 3431 0
L 469 0
L 469 531
Q 828 903 1448 1529
Q 2069 2156 2228 2338
Q 2531 2678 2651 2914
Q 2772 3150 2772 3378
Q 2772 3750 2511 3984
Q 2250 4219 1831 4219
Q 1534 4219 1204 4116
Q 875 4013 500 3803
L 500 4441
Q 881 4594 1212 4672
Q 1544 4750 1819 4750
Q 2544 4750 2975 4387
Q 3406 4025 3406 3419
Q 3406 3131 3298 2873
Q 3191 2616 2906 2266
Q 2828 2175 2409 1742
Q 1991 1309 1228 531
z
" transform="scale(0.015625)"/>
        <path id="DejaVuSans-31" d="M 794 531
L 1825 531
L 1825 4091
L 703 3866
L 703 4441
L 1819 4666
L 2450 4666
L 2450 531
L 3481 531
L 3481 0
L 794 0
L 794 531
z
" transform="scale(0.015625)"/>
       </defs>
       <use xlink:href="#DejaVuSans-32" transform="translate(0 0.684375)"/>
       <use xlink:href="#DejaVuSans-31" transform="translate(64.580078 38.965625) scale(0.7)"/>
      </g>
     </g>
    </g>
    <g id="xtick_2">
     <g id="line2d_3">
      <path d="M 204.882353 384.48
L 204.882353 51.84
" clip-path="url(#p45157ff51b)" style="fill: none; stroke-dasharray: 2.96,1.28; stroke-dashoffset: 0; stroke: #b0b0b0; stroke-opacity: 0.6; stroke-width: 0.8"/>
     </g>
     <g id="line2d_4">
      <g>
       <use xlink:href="#m3d1c97577e" x="204.882353" y="384.48" style="stroke: #000000; stroke-width: 0.8"/>
      </g>
     </g>
     <g id="text_2">
      <!-- $\mathdefault{2^{3}}$ -->
      <g transform="translate(199.282353 399.078438) scale(0.1 -0.1)">
       <defs>
        <path id="DejaVuSans-33" d="M 2597 2516
Q 3050 2419 3304 2112
Q 3559 1806 3559 1356
Q 3559 666 3084 287
Q 2609 -91 1734 -91
Q 1441 -91 1130 -33
Q 819 25 488 141
L 488 750
Q 750 597 1062 519
Q 1375 441 1716 441
Q 2309 441 2620 675
Q 2931 909 2931 1356
Q 2931 1769 2642 2001
Q 2353 2234 1838 2234
L 1294 2234
L 1294 2753
L 1863 2753
Q 2328 2753 2575 2939
Q 2822 3125 2822 3475
Q 2822 3834 2567 4026
Q 2313 4219 1838 4219
Q 1578 4219 1281 4162
Q 984 4106 628 3988
L 628 4550
Q 988 4650 1302 4700
Q 1616 4750 1894 4750
Q 2613 4750 3031 4423
Q 3450 4097 3450 3541
Q 3450 3153 3228 2886
Q 3006 2619 2597 2516
z
" transform="scale(0.015625)"/>
       </defs>
       <use xlink:href="#DejaVuSans-32" transform="translate(0 0.765625)"/>
       <use xlink:href="#DejaVuSans-33" transform="translate(64.580078 39.046875) scale(0.7)"/>
      </g>
     </g>
    </g>
    <g id="xtick_3">
     <g id="line2d_5">
      <path d="M 264.561497 384.48
L 264.561497 51.84
" clip-path="url(#p45157ff51b)" style="fill: none; stroke-dasharray: 2.96,1.28; stroke-dashoffset: 0; stroke: #b0b0b0; stroke-opacity: 0.6; stroke-width: 0.8"/>
     </g>
     <g id="line2d_6">
      <g>
       <use xlink:href="#m3d1c97577e" x="264.561497" y="384.48" style="stroke: #000000; stroke-width: 0.8"/>
      </g>
     </g>
     <g id="text_3">
      <!-- $\mathdefault{2^{5}}$ -->
      <g transform="translate(258.961497 399.078438) scale(0.1 -0.1)">
       <defs>
        <path id="DejaVuSans-35" d="M 691 4666
L 3169 4666
L 3169 4134
L 1269 4134
L 1269 2991
Q 1406 3038 1543 3061
Q 1681 3084 1819 3084
Q 2600 3084 3056 2656
Q 3513 2228 3513 1497
Q 3513 744 3044 326
Q 2575 -91 1722 -91
Q 1428 -91 1123 -41
Q 819 9 494 109
L 494 744
Q 775 591 1075 516
Q 1375 441 1709 441
Q 2250 441 2565 725
Q 2881 1009 2881 1497
Q 2881 1984 2565 2268
Q 2250 2553 1709 2553
Q 1456 2553 1204 2497
Q 953 2441 691 2322
L 691 4666
z
" transform="scale(0.015625)"/>
       </defs>
       <use xlink:href="#DejaVuSans-32" transform="translate(0 0.684375)"/>
       <use xlink:href="#DejaVuSans-35" transform="translate(64.580078 38.965625) scale(0.7)"/>
      </g>
     </g>
    </g>
    <g id="xtick_4">
     <g id="line2d_7">
      <path d="M 324.240642 384.48
L 324.240642 51.84
" clip-path="url(#p45157ff51b)" style="fill: none; stroke-dasharray: 2.96,1.28; stroke-dashoffset: 0; stroke: #b0b0b0; stroke-opacity: 0.6; stroke-width: 0.8"/>
     </g>
     <g id="line2d_8">
      <g>
       <use xlink:href="#m3d1c97577e" x="324.240642" y="384.48" style="stroke: #000000; stroke-width: 0.8"/>
      </g>
     </g>
     <g id="text_4">
      <!-- $\mathdefault{2^{7}}$ -->
      <g transform="translate(318.640642 399.078438) scale(0.1 -0.1)">
       <defs>
        <path id="DejaVuSans-37" d="M 525 4666
L 3525 4666
L 3525 4397
L 1831 0
L 1172 0
L 2766 4134
L 525 4134
L 525 4666
z
" transform="scale(0.015625)"/>
       </defs>
       <use xlink:href="#DejaVuSans-32" transform="translate(0 0.684375)"/>
       <use xlink:href="#DejaVuSans-37" transform="translate(64.580078 38.965625) scale(0.7)"/>
      </g>
     </g>
    </g>
    <g id="xtick_5">
     <g id="line2d_9">
      <path d="M 383.919786 384.48
L 383.919786 51.84
" clip-path="url(#p45157ff51b)" style="fill: none; stroke-dasharray: 2.96,1.28; stroke-dashoffset: 0; stroke: #b0b0b0; stroke-opacity: 0.6; stroke-width: 0.8"/>
     </g>
     <g id="line2d_10">
      <g>
       <use xlink:href="#m3d1c97577e" x="383.919786" y="384.48" style="stroke: #000000; stroke-width: 0.8"/>
      </g>
     </g>
     <g id="text_5">
      <!-- $\mathdefault{2^{9}}$ -->
      <g transform="translate(378.319786 399.078438) scale(0.1 -0.1)">
       <defs>
        <path id="DejaVuSans-39" d="M 703 97
L 703 672
Q 941 559 1184 500
Q 1428 441 1663 441
Q 2288 441 2617 861
Q 2947 1281 2994 2138
Q 2813 1869 2534 1725
Q 2256 1581 1919 1581
Q 1219 1581 811 2004
Q 403 2428 403 3163
Q 403 3881 828 4315
Q 1253 4750 1959 4750
Q 2769 4750 3195 4129
Q 3622 3509 3622 2328
Q 3622 1225 3098 567
Q 2575 -91 1691 -91
Q 1453 -91 1209 -44
Q 966 3 703 97
z
M 1959 2075
Q 2384 2075 2632 2365
Q 2881 2656 2881 3163
Q 2881 3666 2632 3958
Q 2384 4250 1959 4250
Q 1534 4250 1286 3958
Q 1038 3666 1038 3163
Q 1038 2656 1286 2365
Q 1534 2075 1959 2075
z
" transform="scale(0.015625)"/>
       </defs>
       <use xlink:href="#DejaVuSans-32" transform="translate(0 0.765625)"/>
       <use xlink:href="#DejaVuSans-39" transform="translate(64.580078 39.046875) scale(0.7)"/>
      </g>
     </g>
    </g>
    <g id="xtick_6">
     <g id="line2d_11">
      <path d="M 443.59893 384.48
L 443.59893 51.84
" clip-path="url(#p45157ff51b)" style="fill: none; stroke-dasharray: 2.96,1.28; stroke-dashoffset: 0; stroke: #b0b0b0; stroke-opacity: 0.6; stroke-width: 0.8"/>
     </g>
     <g id="line2d_12">
      <g>
       <use xlink:href="#m3d1c97577e" x="443.59893" y="384.48" style="stroke: #000000; stroke-width: 0.8"/>
      </g>
     </g>
     <g id="text_6">
      <!-- $\mathdefault{2^{11}}$ -->
      <g transform="translate(435.74893 399.078438) scale(0.1 -0.1)">
       <use xlink:href="#DejaVuSans-32" transform="translate(0 0.684375)"/>
       <use xlink:href="#DejaVuSans-31" transform="translate(64.580078 38.965625) scale(0.7)"/>
       <use xlink:href="#DejaVuSans-31" transform="translate(109.116211 38.965625) scale(0.7)"/>
      </g>
     </g>
    </g>
    <g id="xtick_7">
     <g id="line2d_13">
      <path d="M 503.278075 384.48
L 503.278075 51.84
" clip-path="url(#p45157ff51b)" style="fill: none; stroke-dasharray: 2.96,1.28; stroke-dashoffset: 0; stroke: #b0b0b0; stroke-opacity: 0.6; stroke-width: 0.8"/>
     </g>
     <g id="line2d_14">
      <g>
       <use xlink:href="#m3d1c97577e" x="503.278075" y="384.48" style="stroke: #000000; stroke-width: 0.8"/>
      </g>
     </g>
     <g id="text_7">
      <!-- $\mathdefault{2^{13}}$ -->
      <g transform="translate(495.428075 399.078438) scale(0.1 -0.1)">
       <use xlink:href="#DejaVuSans-32" transform="translate(0 0.765625)"/>
       <use xlink:href="#DejaVuSans-31" transform="translate(64.580078 39.046875) scale(0.7)"/>
       <use xlink:href="#DejaVuSans-33" transform="translate(109.116211 39.046875) scale(0.7)"/>
      </g>
     </g>
    </g>
    <g id="xtick_8">
     <g id="line2d_15">
      <path d="M 562.957219 384.48
L 562.957219 51.84
" clip-path="url(#p45157ff51b)" style="fill: none; stroke-dasharray: 2.96,1.28; stroke-dashoffset: 0; stroke: #b0b0b0; stroke-opacity: 0.6; stroke-width: 0.8"/>
     </g>
     <g id="line2d_16">
      <g>
       <use xlink:href="#m3d1c97577e" x="562.957219" y="384.48" style="stroke: #000000; stroke-width: 0.8"/>
      </g>
     </g>
     <g id="text_8">
      <!-- $\mathdefault{2^{15}}$ -->
      <g transform="translate(555.107219 399.078438) scale(0.1 -0.1)">
       <use xlink:href="#DejaVuSans-32" transform="translate(0 0.684375)"/>
       <use xlink:href="#DejaVuSans-31" transform="translate(64.580078 38.965625) scale(0.7)"/>
       <use xlink:href="#DejaVuSans-35" transform="translate(109.116211 38.965625) scale(0.7)"/>
      </g>
     </g>
    </g>
    <g id="xtick_9">
     <g id="line2d_17">
      <path d="M 622.636364 384.48
L 622.636364 51.84
" clip-path="url(#p45157ff51b)" style="fill: none; stroke-dasharray: 2.96,1.28; stroke-dashoffset: 0; stroke: #b0b0b0; stroke-opacity: 0.6; stroke-width: 0.8"/>
     </g>
     <g id="line2d_18">
      <g>
       <use xlink:href="#m3d1c97577e" x="622.636364" y="384.48" style="stroke: #000000; stroke-width: 0.8"/>
      </g>
     </g>
     <g id="text_9">
      <!-- $\mathdefault{2^{17}}$ -->
      <g transform="translate(614.786364 399.078438) scale(0.1 -0.1)">
       <use xlink:href="#DejaVuSans-32" transform="translate(0 0.684375)"/>
       <use xlink:href="#DejaVuSans-31" transform="translate(64.580078 38.965625) scale(0.7)"/>
       <use xlink:href="#DejaVuSans-37" transform="translate(109.116211 38.965625) scale(0.7)"/>
      </g>
     </g>
    </g>
    <g id="text_10">
     <!-- Vector size -->
     <g transform="translate(341.782812 412.756563) scale(0.1 -0.1)">
      <defs>
       <path id="DejaVuSans-56" d="M 1831 0
L 50 4666
L 709 4666
L 2188 738
L 3669 4666
L 4325 4666
L 2547 0
L 1831 0
z
" transform="scale(0.015625)"/>
       <path id="DejaVuSans-65" d="M 3597 1894
L 3597 1613
L 953 1613
Q 991 1019 1311 708
Q 1631 397 2203 397
Q 2534 397 2845 478
Q 3156 559 3463 722
L 3463 178
Q 3153 47 2828 -22
Q 2503 -91 2169 -91
Q 1331 -91 842 396
Q 353 884 353 1716
Q 353 2575 817 3079
Q 1281 3584 2069 3584
Q 2775 3584 3186 3129
Q 3597 2675 3597 1894
z
M 3022 2063
Q 3016 2534 2758 2815
Q 2500 3097 2075 3097
Q 1594 3097 1305 2825
Q 1016 2553 972 2059
L 3022 2063
z
" transform="scale(0.015625)"/>
       <path id="DejaVuSans-63" d="M 3122 3366
L 3122 2828
Q 2878 2963 2633 3030
Q 2388 3097 2138 3097
Q 1578 3097 1268 2742
Q 959 2388 959 1747
Q 959 1106 1268 751
Q 1578 397 2138 397
Q 2388 397 2633 464
Q 2878 531 3122 666
L 3122 134
Q 2881 22 2623 -34
Q 2366 -91 2075 -91
Q 1284 -91 818 406
Q 353 903 353 1747
Q 353 2603 823 3093
Q 1294 3584 2113 3584
Q 2378 3584 2631 3529
Q 2884 3475 3122 3366
z
" transform="scale(0.015625)"/>
       <path id="DejaVuSans-74" d="M 1172 4494
L 1172 3500
L 2356 3500
L 2356 3053
L 1172 3053
L 1172 1153
Q 1172 725 1289 603
Q 1406 481 1766 481
L 2356 481
L 2356 0
L 1766 0
Q 1100 0 847 248
Q 594 497 594 1153
L 594 3053
L 172 3053
L 172 3500
L 594 3500
L 594 4494
L 1172 4494
z
" transform="scale(0.015625)"/>
       <path id="DejaVuSans-6f" d="M 1959 3097
Q 1497 3097 1228 2736
Q 959 2375 959 1747
Q 959 1119 1226 758
Q 1494 397 1959 397
Q 2419 397 2687 759
Q 2956 1122 2956 1747
Q 2956 2369 2687 2733
Q 2419 3097 1959 3097
z
M 1959 3584
Q 2709 3584 3137 3096
Q 3566 2609 3566 1747
Q 3566 888 3137 398
Q 2709 -91 1959 -91
Q 1206 -91 779 398
Q 353 888 353 1747
Q 353 2609 779 3096
Q 1206 3584 1959 3584
z
" transform="scale(0.015625)"/>
       <path id="DejaVuSans-72" d="M 2631 2963
Q 2534 3019 2420 3045
Q 2306 3072 2169 3072
Q 1681 3072 1420 2755
Q 1159 2438 1159 1844
L 1159 0
L 581 0
L 581 3500
L 1159 3500
L 1159 2956
Q 1341 3275 1631 3429
Q 1922 3584 2338 3584
Q 2397 3584 2469 3576
Q 2541 3569 2628 3553
L 2631 2963
z
" transform="scale(0.015625)"/>
       <path id="DejaVuSans-20" transform="scale(0.015625)"/>
       <path id="DejaVuSans-73" d="M 2834 3397
L 2834 2853
Q 2591 2978 2328 3040
Q 2066 3103 1784 3103
Q 1356 3103 1142 2972
Q 928 2841 928 2578
Q 928 2378 1081 2264
Q 1234 2150 1697 2047
L 1894 2003
Q 2506 1872 2764 1633
Q 3022 1394 3022 966
Q 3022 478 2636 193
Q 2250 -91 1575 -91
Q 1294 -91 989 -36
Q 684 19 347 128
L 347 722
Q 666 556 975 473
Q 1284 391 1588 391
Q 1994 391 2212 530
Q 2431 669 2431 922
Q 2431 1156 2273 1281
Q 2116 1406 1581 1522
L 1381 1569
Q 847 1681 609 1914
Q 372 2147 372 2553
Q 372 3047 722 3315
Q 1072 3584 1716 3584
Q 2034 3584 2315 3537
Q 2597 3491 2834 3397
z
" transform="scale(0.015625)"/>
       <path id="DejaVuSans-69" d="M 603 3500
L 1178 3500
L 1178 0
L 603 0
L 603 3500
z
M 603 4863
L 1178 4863
L 1178 4134
L 603 4134
L 603 4863
z
" transform="scale(0.015625)"/>
       <path id="DejaVuSans-7a" d="M 353 3500
L 3084 3500
L 3084 2975
L 922 459
L 3084 459
L 3084 0
L 275 0
L 275 525
L 2438 3041
L 353 3041
L 353 3500
z
" transform="scale(0.015625)"/>
      </defs>
      <use xlink:href="#DejaVuSans-56"/>
      <use xlink:href="#DejaVuSans-65" transform="translate(60.658203 0)"/>
      <use xlink:href="#DejaVuSans-63" transform="translate(122.181641 0)"/>
      <use xlink:href="#DejaVuSans-74" transform="translate(177.162109 0)"/>
      <use xlink:href="#DejaVuSans-6f" transform="translate(216.371094 0)"/>
      <use xlink:href="#DejaVuSans-72" transform="translate(277.552734 0)"/>
      <use xlink:href="#DejaVuSans-20" transform="translate(318.666016 0)"/>
      <use xlink:href="#DejaVuSans-73" transform="translate(350.453125 0)"/>
      <use xlink:href="#DejaVuSans-69" transform="translate(402.552734 0)"/>
      <use xlink:href="#DejaVuSans-7a" transform="translate(430.335938 0)"/>
      <use xlink:href="#DejaVuSans-65" transform="translate(482.826172 0)"/>
     </g>
    </g>
   </g>
   <g id="matplotlib.axis_2">
    <g id="ytick_1">
     <g id="line2d_19">
      <path d="M 90 350.118749
L 648 350.118749
" clip-path="url(#p45157ff51b)" style="fill: none; stroke-dasharray: 2.96,1.28; stroke-dashoffset: 0; stroke: #b0b0b0; stroke-opacity: 0.6; stroke-width: 0.8"/>
     </g>
     <g id="line2d_20">
      <defs>
       <path id="mbcd107f27a" d="M 0 0
L -3.5 0
" style="stroke: #000000; stroke-width: 0.8"/>
      </defs>
      <g>
       <use xlink:href="#mbcd107f27a" x="90" y="350.118749" style="stroke: #000000; stroke-width: 0.8"/>
      </g>
     </g>
     <g id="text_11">
      <!-- 1.0 -->
      <g transform="translate(67.096875 353.917968) scale(0.1 -0.1)">
       <defs>
        <path id="DejaVuSans-2e" d="M 684 794
L 1344 794
L 1344 0
L 684 0
L 684 794
z
" transform="scale(0.015625)"/>
        <path id="DejaVuSans-30" d="M 2034 4250
Q 1547 4250 1301 3770
Q 1056 3291 1056 2328
Q 1056 1369 1301 889
Q 1547 409 2034 409
Q 2525 409 2770 889
Q 3016 1369 3016 2328
Q 3016 3291 2770 3770
Q 2525 4250 2034 4250
z
M 2034 4750
Q 2819 4750 3233 4129
Q 3647 3509 3647 2328
Q 3647 1150 3233 529
Q 2819 -91 2034 -91
Q 1250 -91 836 529
Q 422 1150 422 2328
Q 422 3509 836 4129
Q 1250 4750 2034 4750
z
" transform="scale(0.015625)"/>
       </defs>
       <use xlink:href="#DejaVuSans-31"/>
       <use xlink:href="#DejaVuSans-2e" transform="translate(63.623047 0)"/>
       <use xlink:href="#DejaVuSans-30" transform="translate(95.410156 0)"/>
      </g>
     </g>
    </g>
    <g id="ytick_2">
     <g id="line2d_21">
      <path d="M 90 306.09024
L 648 306.09024
" clip-path="url(#p45157ff51b)" style="fill: none; stroke-dasharray: 2.96,1.28; stroke-dashoffset: 0; stroke: #b0b0b0; stroke-opacity: 0.6; stroke-width: 0.8"/>
     </g>
     <g id="line2d_22">
      <g>
       <use xlink:href="#mbcd107f27a" x="90" y="306.09024" style="stroke: #000000; stroke-width: 0.8"/>
      </g>
     </g>
     <g id="text_12">
      <!-- 1.5 -->
      <g transform="translate(67.096875 309.889458) scale(0.1 -0.1)">
       <use xlink:href="#DejaVuSans-31"/>
       <use xlink:href="#DejaVuSans-2e" transform="translate(63.623047 0)"/>
       <use xlink:href="#DejaVuSans-35" transform="translate(95.410156 0)"/>
      </g>
     </g>
    </g>
    <g id="ytick_3">
     <g id="line2d_23">
      <path d="M 90 262.06173
L 648 262.06173
" clip-path="url(#p45157ff51b)" style="fill: none; stroke-dasharray: 2.96,1.28; stroke-dashoffset: 0; stroke: #b0b0b0; stroke-opacity: 0.6; stroke-width: 0.8"/>
     </g>
     <g id="line2d_24">
      <g>
       <use xlink:href="#mbcd107f27a" x="90" y="262.06173" style="stroke: #000000; stroke-width: 0.8"/>
      </g>
     </g>
     <g id="text_13">
      <!-- 2.0 -->
      <g transform="translate(67.096875 265.860949) scale(0.1 -0.1)">
       <use xlink:href="#DejaVuSans-32"/>
       <use xlink:href="#DejaVuSans-2e" transform="translate(63.623047 0)"/>
       <use xlink:href="#DejaVuSans-30" transform="translate(95.410156 0)"/>
      </g>
     </g>
    </g>
    <g id="ytick_4">
     <g id="line2d_25">
      <path d="M 90 218.033221
L 648 218.033221
" clip-path="url(#p45157ff51b)" style="fill: none; stroke-dasharray: 2.96,1.28; stroke-dashoffset: 0; stroke: #b0b0b0; stroke-opacity: 0.6; stroke-width: 0.8"/>
     </g>
     <g id="line2d_26">
      <g>
       <use xlink:href="#mbcd107f27a" x="90" y="218.033221" style="stroke: #000000; stroke-width: 0.8"/>
      </g>
     </g>
     <g id="text_14">
      <!-- 2.5 -->
      <g transform="translate(67.096875 221.83244) scale(0.1 -0.1)">
       <use xlink:href="#DejaVuSans-32"/>
       <use xlink:href="#DejaVuSans-2e" transform="translate(63.623047 0)"/>
       <use xlink:href="#DejaVuSans-35" transform="translate(95.410156 0)"/>
      </g>
     </g>
    </g>
    <g id="ytick_5">
     <g id="line2d_27">
      <path d="M 90 174.004712
L 648 174.004712
" clip-path="url(#p45157ff51b)" style="fill: none; stroke-dasharray: 2.96,1.28; stroke-dashoffset: 0; stroke: #b0b0b0; stroke-opacity: 0.6; stroke-width: 0.8"/>
     </g>
     <g id="line2d_28">
      <g>
       <use xlink:href="#mbcd107f27a" x="90" y="174.004712" style="stroke: #000000; stroke-width: 0.8"/>
      </g>
     </g>
     <g id="text_15">
      <!-- 3.0 -->
      <g transform="translate(67.096875 177.80393) scale(0.1 -0.1)">
       <use xlink:href="#DejaVuSans-33"/>
       <use xlink:href="#DejaVuSans-2e" transform="translate(63.623047 0)"/>
       <use xlink:href="#DejaVuSans-30" transform="translate(95.410156 0)"/>
      </g>
     </g>
    </g>
    <g id="ytick_6">
     <g id="line2d_29">
      <path d="M 90 129.976202
L 648 129.976202
" clip-path="url(#p45157ff51b)" style="fill: none; stroke-dasharray: 2.96,1.28; stroke-dashoffset: 0; stroke: #b0b0b0; stroke-opacity: 0.6; stroke-width: 0.8"/>
     </g>
     <g id="line2d_30">
      <g>
       <use xlink:href="#mbcd107f27a" x="90" y="129.976202" style="stroke: #000000; stroke-width: 0.8"/>
      </g>
     </g>
     <g id="text_16">
      <!-- 3.5 -->
      <g transform="translate(67.096875 133.775421) scale(0.1 -0.1)">
       <use xlink:href="#DejaVuSans-33"/>
       <use xlink:href="#DejaVuSans-2e" transform="translate(63.623047 0)"/>
       <use xlink:href="#DejaVuSans-35" transform="translate(95.410156 0)"/>
      </g>
     </g>
    </g>
    <g id="ytick_7">
     <g id="line2d_31">
      <path d="M 90 85.947693
L 648 85.947693
" clip-path="url(#p45157ff51b)" style="fill: none; stroke-dasharray: 2.96,1.28; stroke-dashoffset: 0; stroke: #b0b0b0; stroke-opacity: 0.6; stroke-width: 0.8"/>
     </g>
     <g id="line2d_32">
      <g>
       <use xlink:href="#mbcd107f27a" x="90" y="85.947693" style="stroke: #000000; stroke-width: 0.8"/>
      </g>
     </g>
     <g id="text_17">
      <!-- 4.0 -->
      <g transform="translate(67.096875 89.746912) scale(0.1 -0.1)">
       <defs>
        <path id="DejaVuSans-34" d="M 2419 4116
L 825 1625
L 2419 1625
L 2419 4116
z
M 2253 4666
L 3047 4666
L 3047 1625
L 3713 1625
L 3713 1100
L 3047 1100
L 3047 0
L 2419 0
L 2419 1100
L 313 1100
L 313 1709
L 2253 4666
z
" transform="scale(0.015625)"/>
       </defs>
       <use xlink:href="#DejaVuSans-34"/>
       <use xlink:href="#DejaVuSans-2e" transform="translate(63.623047 0)"/>
       <use xlink:href="#DejaVuSans-30" transform="translate(95.410156 0)"/>
      </g>
     </g>
    </g>
    <g id="text_18">
     <!-- Speedup vs. &lt;ProxyTrivialShape&gt;, times -->
     <g transform="translate(61.017187 319.881094) rotate(-90) scale(0.1 -0.1)">
      <defs>
       <path id="DejaVuSans-53" d="M 3425 4513
L 3425 3897
Q 3066 4069 2747 4153
Q 2428 4238 2131 4238
Q 1616 4238 1336 4038
Q 1056 3838 1056 3469
Q 1056 3159 1242 3001
Q 1428 2844 1947 2747
L 2328 2669
Q 3034 2534 3370 2195
Q 3706 1856 3706 1288
Q 3706 609 3251 259
Q 2797 -91 1919 -91
Q 1588 -91 1214 -16
Q 841 59 441 206
L 441 856
Q 825 641 1194 531
Q 1563 422 1919 422
Q 2459 422 2753 634
Q 3047 847 3047 1241
Q 3047 1584 2836 1778
Q 2625 1972 2144 2069
L 1759 2144
Q 1053 2284 737 2584
Q 422 2884 422 3419
Q 422 4038 858 4394
Q 1294 4750 2059 4750
Q 2388 4750 2728 4690
Q 3069 4631 3425 4513
z
" transform="scale(0.015625)"/>
       <path id="DejaVuSans-70" d="M 1159 525
L 1159 -1331
L 581 -1331
L 581 3500
L 1159 3500
L 1159 2969
Q 1341 3281 1617 3432
Q 1894 3584 2278 3584
Q 2916 3584 3314 3078
Q 3713 2572 3713 1747
Q 3713 922 3314 415
Q 2916 -91 2278 -91
Q 1894 -91 1617 61
Q 1341 213 1159 525
z
M 3116 1747
Q 3116 2381 2855 2742
Q 2594 3103 2138 3103
Q 1681 3103 1420 2742
Q 1159 2381 1159 1747
Q 1159 1113 1420 752
Q 1681 391 2138 391
Q 2594 391 2855 752
Q 3116 1113 3116 1747
z
" transform="scale(0.015625)"/>
       <path id="DejaVuSans-64" d="M 2906 2969
L 2906 4863
L 3481 4863
L 3481 0
L 2906 0
L 2906 525
Q 2725 213 2448 61
Q 2172 -91 1784 -91
Q 1150 -91 751 415
Q 353 922 353 1747
Q 353 2572 751 3078
Q 1150 3584 1784 3584
Q 2172 3584 2448 3432
Q 2725 3281 2906 2969
z
M 947 1747
Q 947 1113 1208 752
Q 1469 391 1925 391
Q 2381 391 2643 752
Q 2906 1113 2906 1747
Q 2906 2381 2643 2742
Q 2381 3103 1925 3103
Q 1469 3103 1208 2742
Q 947 2381 947 1747
z
" transform="scale(0.015625)"/>
       <path id="DejaVuSans-75" d="M 544 1381
L 544 3500
L 1119 3500
L 1119 1403
Q 1119 906 1312 657
Q 1506 409 1894 409
Q 2359 409 2629 706
Q 2900 1003 2900 1516
L 2900 3500
L 3475 3500
L 3475 0
L 2900 0
L 2900 538
Q 2691 219 2414 64
Q 2138 -91 1772 -91
Q 1169 -91 856 284
Q 544 659 544 1381
z
M 1991 3584
L 1991 3584
z
" transform="scale(0.015625)"/>
       <path id="DejaVuSans-76" d="M 191 3500
L 800 3500
L 1894 563
L 2988 3500
L 3597 3500
L 2284 0
L 1503 0
L 191 3500
z
" transform="scale(0.015625)"/>
       <path id="DejaVuSans-3c" d="M 4684 3150
L 1459 2003
L 4684 863
L 4684 294
L 678 1747
L 678 2266
L 4684 3719
L 4684 3150
z
" transform="scale(0.015625)"/>
       <path id="DejaVuSans-50" d="M 1259 4147
L 1259 2394
L 2053 2394
Q 2494 2394 2734 2622
Q 2975 2850 2975 3272
Q 2975 3691 2734 3919
Q 2494 4147 2053 4147
L 1259 4147
z
M 628 4666
L 2053 4666
Q 2838 4666 3239 4311
Q 3641 3956 3641 3272
Q 3641 2581 3239 2228
Q 2838 1875 2053 1875
L 1259 1875
L 1259 0
L 628 0
L 628 4666
z
" transform="scale(0.015625)"/>
       <path id="DejaVuSans-78" d="M 3513 3500
L 2247 1797
L 3578 0
L 2900 0
L 1881 1375
L 863 0
L 184 0
L 1544 1831
L 300 3500
L 978 3500
L 1906 2253
L 2834 3500
L 3513 3500
z
" transform="scale(0.015625)"/>
       <path id="DejaVuSans-79" d="M 2059 -325
Q 1816 -950 1584 -1140
Q 1353 -1331 966 -1331
L 506 -1331
L 506 -850
L 844 -850
Q 1081 -850 1212 -737
Q 1344 -625 1503 -206
L 1606 56
L 191 3500
L 800 3500
L 1894 763
L 2988 3500
L 3597 3500
L 2059 -325
z
" transform="scale(0.015625)"/>
       <path id="DejaVuSans-54" d="M -19 4666
L 3928 4666
L 3928 4134
L 2272 4134
L 2272 0
L 1638 0
L 1638 4134
L -19 4134
L -19 4666
z
" transform="scale(0.015625)"/>
       <path id="DejaVuSans-61" d="M 2194 1759
Q 1497 1759 1228 1600
Q 959 1441 959 1056
Q 959 750 1161 570
Q 1363 391 1709 391
Q 2188 391 2477 730
Q 2766 1069 2766 1631
L 2766 1759
L 2194 1759
z
M 3341 1997
L 3341 0
L 2766 0
L 2766 531
Q 2569 213 2275 61
Q 1981 -91 1556 -91
Q 1019 -91 701 211
Q 384 513 384 1019
Q 384 1609 779 1909
Q 1175 2209 1959 2209
L 2766 2209
L 2766 2266
Q 2766 2663 2505 2880
Q 2244 3097 1772 3097
Q 1472 3097 1187 3025
Q 903 2953 641 2809
L 641 3341
Q 956 3463 1253 3523
Q 1550 3584 1831 3584
Q 2591 3584 2966 3190
Q 3341 2797 3341 1997
z
" transform="scale(0.015625)"/>
       <path id="DejaVuSans-6c" d="M 603 4863
L 1178 4863
L 1178 0
L 603 0
L 603 4863
z
" transform="scale(0.015625)"/>
       <path id="DejaVuSans-68" d="M 3513 2113
L 3513 0
L 2938 0
L 2938 2094
Q 2938 2591 2744 2837
Q 2550 3084 2163 3084
Q 1697 3084 1428 2787
Q 1159 2491 1159 1978
L 1159 0
L 581 0
L 581 4863
L 1159 4863
L 1159 2956
Q 1366 3272 1645 3428
Q 1925 3584 2291 3584
Q 2894 3584 3203 3211
Q 3513 2838 3513 2113
z
" transform="scale(0.015625)"/>
       <path id="DejaVuSans-3e" d="M 678 3150
L 678 3719
L 4684 2266
L 4684 1747
L 678 294
L 678 863
L 3897 2003
L 678 3150
z
" transform="scale(0.015625)"/>
       <path id="DejaVuSans-2c" d="M 750 794
L 1409 794
L 1409 256
L 897 -744
L 494 -744
L 750 256
L 750 794
z
" transform="scale(0.015625)"/>
       <path id="DejaVuSans-6d" d="M 3328 2828
Q 3544 3216 3844 3400
Q 4144 3584 4550 3584
Q 5097 3584 5394 3201
Q 5691 2819 5691 2113
L 5691 0
L 5113 0
L 5113 2094
Q 5113 2597 4934 2840
Q 4756 3084 4391 3084
Q 3944 3084 3684 2787
Q 3425 2491 3425 1978
L 3425 0
L 2847 0
L 2847 2094
Q 2847 2600 2669 2842
Q 2491 3084 2119 3084
Q 1678 3084 1418 2786
Q 1159 2488 1159 1978
L 1159 0
L 581 0
L 581 3500
L 1159 3500
L 1159 2956
Q 1356 3278 1631 3431
Q 1906 3584 2284 3584
Q 2666 3584 2933 3390
Q 3200 3197 3328 2828
z
" transform="scale(0.015625)"/>
      </defs>
      <use xlink:href="#DejaVuSans-53"/>
      <use xlink:href="#DejaVuSans-70" transform="translate(63.476562 0)"/>
      <use xlink:href="#DejaVuSans-65" transform="translate(126.953125 0)"/>
      <use xlink:href="#DejaVuSans-65" transform="translate(188.476562 0)"/>
      <use xlink:href="#DejaVuSans-64" transform="translate(250 0)"/>
      <use xlink:href="#DejaVuSans-75" transform="translate(313.476562 0)"/>
      <use xlink:href="#DejaVuSans-70" transform="translate(376.855469 0)"/>
      <use xlink:href="#DejaVuSans-20" transform="translate(440.332031 0)"/>
      <use xlink:href="#DejaVuSans-76" transform="translate(472.119141 0)"/>
      <use xlink:href="#DejaVuSans-73" transform="translate(531.298828 0)"/>
      <use xlink:href="#DejaVuSans-2e" transform="translate(583.398438 0)"/>
      <use xlink:href="#DejaVuSans-20" transform="translate(615.185547 0)"/>
      <use xlink:href="#DejaVuSans-3c" transform="translate(646.972656 0)"/>
      <use xlink:href="#DejaVuSans-50" transform="translate(730.761719 0)"/>
      <use xlink:href="#DejaVuSans-72" transform="translate(789.314453 0)"/>
      <use xlink:href="#DejaVuSans-6f" transform="translate(828.177734 0)"/>
      <use xlink:href="#DejaVuSans-78" transform="translate(886.234375 0)"/>
      <use xlink:href="#DejaVuSans-79" transform="translate(945.414062 0)"/>
      <use xlink:href="#DejaVuSans-54" transform="translate(1004.59375 0)"/>
      <use xlink:href="#DejaVuSans-72" transform="translate(1050.927734 0)"/>
      <use xlink:href="#DejaVuSans-69" transform="translate(1092.041016 0)"/>
      <use xlink:href="#DejaVuSans-76" transform="translate(1119.824219 0)"/>
      <use xlink:href="#DejaVuSans-69" transform="translate(1179.003906 0)"/>
      <use xlink:href="#DejaVuSans-61" transform="translate(1206.787109 0)"/>
      <use xlink:href="#DejaVuSans-6c" transform="translate(1268.066406 0)"/>
      <use xlink:href="#DejaVuSans-53" transform="translate(1295.849609 0)"/>
      <use xlink:href="#DejaVuSans-68" transform="translate(1359.326172 0)"/>
      <use xlink:href="#DejaVuSans-61" transform="translate(1422.705078 0)"/>
      <use xlink:href="#DejaVuSans-70" transform="translate(1483.984375 0)"/>
      <use xlink:href="#DejaVuSans-65" transform="translate(1547.460938 0)"/>
      <use xlink:href="#DejaVuSans-3e" transform="translate(1608.984375 0)"/>
      <use xlink:href="#DejaVuSans-2c" transform="translate(1692.773438 0)"/>
      <use xlink:href="#DejaVuSans-20" transform="translate(1724.560547 0)"/>
      <use xlink:href="#DejaVuSans-74" transform="translate(1756.347656 0)"/>
      <use xlink:href="#DejaVuSans-69" transform="translate(1795.556641 0)"/>
      <use xlink:href="#DejaVuSans-6d" transform="translate(1823.339844 0)"/>
      <use xlink:href="#DejaVuSans-65" transform="translate(1920.751953 0)"/>
      <use xlink:href="#DejaVuSans-73" transform="translate(1982.275391 0)"/>
     </g>
    </g>
   </g>
   <g id="line2d_33">
    <path d="M 115.363636 319.200951
L 145.203209 339.312796
L 175.042781 327.450606
L 204.882353 333.729118
L 234.721925 338.317293
L 264.561497 341.35478
L 294.40107 342.140539
L 324.240642 344.504803
L 354.080214 351.382214
L 383.919786 347.688223
L 413.759358 344.726141
L 443.59893 344.120173
L 473.438503 344.763569
L 503.278075 345.044053
L 533.117647 345.027523
L 562.957219 345.249816
L 592.796791 346.41112
L 622.636364 346.994665
" clip-path="url(#p45157ff51b)" style="fill: none; stroke: #1f77b4; stroke-width: 1.5; stroke-linecap: square"/>
    <defs>
     <path id="m799efc7bb5" d="M 0 3
C 0.795609 3 1.55874 2.683901 2.12132 2.12132
C 2.683901 1.55874 3 0.795609 3 0
C 3 -0.795609 2.683901 -1.55874 2.12132 -2.12132
C 1.55874 -2.683901 0.795609 -3 0 -3
C -0.795609 -3 -1.55874 -2.683901 -2.12132 -2.12132
C -2.683901 -1.55874 -3 -0.795609 -3 0
C -3 0.795609 -2.683901 1.55874 -2.12132 2.12132
C -1.55874 2.683901 -0.795609 3 0 3
z
" style="stroke: #1f77b4"/>
    </defs>
    <g clip-path="url(#p45157ff51b)">
     <use xlink:href="#m799efc7bb5" x="115.363636" y="319.200951" style="fill: #1f77b4; stroke: #1f77b4"/>
     <use xlink:href="#m799efc7bb5" x="145.203209" y="339.312796" style="fill: #1f77b4; stroke: #1f77b4"/>
     <use xlink:href="#m799efc7bb5" x="175.042781" y="327.450606" style="fill: #1f77b4; stroke: #1f77b4"/>
     <use xlink:href="#m799efc7bb5" x="204.882353" y="333.729118" style="fill: #1f77b4; stroke: #1f77b4"/>
     <use xlink:href="#m799efc7bb5" x="234.721925" y="338.317293" style="fill: #1f77b4; stroke: #1f77b4"/>
     <use xlink:href="#m799efc7bb5" x="264.561497" y="341.35478" style="fill: #1f77b4; stroke: #1f77b4"/>
     <use xlink:href="#m799efc7bb5" x="294.40107" y="342.140539" style="fill: #1f77b4; stroke: #1f77b4"/>
     <use xlink:href="#m799efc7bb5" x="324.240642" y="344.504803" style="fill: #1f77b4; stroke: #1f77b4"/>
     <use xlink:href="#m799efc7bb5" x="354.080214" y="351.382214" style="fill: #1f77b4; stroke: #1f77b4"/>
     <use xlink:href="#m799efc7bb5" x="383.919786" y="347.688223" style="fill: #1f77b4; stroke: #1f77b4"/>
     <use xlink:href="#m799efc7bb5" x="413.759358" y="344.726141" style="fill: #1f77b4; stroke: #1f77b4"/>
     <use xlink:href="#m799efc7bb5" x="443.59893" y="344.120173" style="fill: #1f77b4; stroke: #1f77b4"/>
     <use xlink:href="#m799efc7bb5" x="473.438503" y="344.763569" style="fill: #1f77b4; stroke: #1f77b4"/>
     <use xlink:href="#m799efc7bb5" x="503.278075" y="345.044053" style="fill: #1f77b4; stroke: #1f77b4"/>
     <use xlink:href="#m799efc7bb5" x="533.117647" y="345.027523" style="fill: #1f77b4; stroke: #1f77b4"/>
     <use xlink:href="#m799efc7bb5" x="562.957219" y="345.249816" style="fill: #1f77b4; stroke: #1f77b4"/>
     <use xlink:href="#m799efc7bb5" x="592.796791" y="346.41112" style="fill: #1f77b4; stroke: #1f77b4"/>
     <use xlink:href="#m799efc7bb5" x="622.636364" y="346.994665" style="fill: #1f77b4; stroke: #1f77b4"/>
    </g>
   </g>
   <g id="line2d_34">
    <path d="M 115.363636 327.099694
L 145.203209 345.256705
L 175.042781 333.168807
L 204.882353 331.379972
L 234.721925 331.983279
L 264.561497 333.654134
L 294.40107 327.981552
L 324.240642 326.08387
L 354.080214 332.463588
L 383.919786 333.912427
L 413.759358 334.761833
L 443.59893 334.811019
L 473.438503 335.00175
L 503.278075 334.73218
L 533.117647 335.01224
L 562.957219 334.935134
L 592.796791 335.304287
L 622.636364 336.893422
" clip-path="url(#p45157ff51b)" style="fill: none; stroke: #2ca02c; stroke-width: 1.5; stroke-linecap: square"/>
    <defs>
     <path id="m19f6e2baad" d="M 0 3
C 0.795609 3 1.55874 2.683901 2.12132 2.12132
C 2.683901 1.55874 3 0.795609 3 0
C 3 -0.795609 2.683901 -1.55874 2.12132 -2.12132
C 1.55874 -2.683901 0.795609 -3 0 -3
C -0.795609 -3 -1.55874 -2.683901 -2.12132 -2.12132
C -2.683901 -1.55874 -3 -0.795609 -3 0
C -3 0.795609 -2.683901 1.55874 -2.12132 2.12132
C -1.55874 2.683901 -0.795609 3 0 3
z
" style="stroke: #2ca02c"/>
    </defs>
    <g clip-path="url(#p45157ff51b)">
     <use xlink:href="#m19f6e2baad" x="115.363636" y="327.099694" style="fill: #2ca02c; stroke: #2ca02c"/>
     <use xlink:href="#m19f6e2baad" x="145.203209" y="345.256705" style="fill: #2ca02c; stroke: #2ca02c"/>
     <use xlink:href="#m19f6e2baad" x="175.042781" y="333.168807" style="fill: #2ca02c; stroke: #2ca02c"/>
     <use xlink:href="#m19f6e2baad" x="204.882353" y="331.379972" style="fill: #2ca02c; stroke: #2ca02c"/>
     <use xlink:href="#m19f6e2baad" x="234.721925" y="331.983279" style="fill: #2ca02c; stroke: #2ca02c"/>
     <use xlink:href="#m19f6e2baad" x="264.561497" y="333.654134" style="fill: #2ca02c; stroke: #2ca02c"/>
     <use xlink:href="#m19f6e2baad" x="294.40107" y="327.981552" style="fill: #2ca02c; stroke: #2ca02c"/>
     <use xlink:href="#m19f6e2baad" x="324.240642" y="326.08387" style="fill: #2ca02c; stroke: #2ca02c"/>
     <use xlink:href="#m19f6e2baad" x="354.080214" y="332.463588" style="fill: #2ca02c; stroke: #2ca02c"/>
     <use xlink:href="#m19f6e2baad" x="383.919786" y="333.912427" style="fill: #2ca02c; stroke: #2ca02c"/>
     <use xlink:href="#m19f6e2baad" x="413.759358" y="334.761833" style="fill: #2ca02c; stroke: #2ca02c"/>
     <use xlink:href="#m19f6e2baad" x="443.59893" y="334.811019" style="fill: #2ca02c; stroke: #2ca02c"/>
     <use xlink:href="#m19f6e2baad" x="473.438503" y="335.00175" style="fill: #2ca02c; stroke: #2ca02c"/>
     <use xlink:href="#m19f6e2baad" x="503.278075" y="334.73218" style="fill: #2ca02c; stroke: #2ca02c"/>
     <use xlink:href="#m19f6e2baad" x="533.117647" y="335.01224" style="fill: #2ca02c; stroke: #2ca02c"/>
     <use xlink:href="#m19f6e2baad" x="562.957219" y="334.935134" style="fill: #2ca02c; stroke: #2ca02c"/>
     <use xlink:href="#m19f6e2baad" x="592.796791" y="335.304287" style="fill: #2ca02c; stroke: #2ca02c"/>
     <use xlink:href="#m19f6e2baad" x="622.636364" y="336.893422" style="fill: #2ca02c; stroke: #2ca02c"/>
    </g>
   </g>
   <g id="line2d_35">
    <path d="M 115.363636 369.36
L 145.203209 369.33119
L 175.042781 363.371478
L 204.882353 363.444569
L 234.721925 362.754295
L 264.561497 364.845204
L 294.40107 360.773808
L 324.240642 359.744226
L 354.080214 361.238925
L 383.919786 356.176856
L 413.759358 353.422127
L 443.59893 352.494687
L 473.438503 352.335878
L 503.278075 352.360258
L 533.117647 352.556825
L 562.957219 352.747852
L 592.796791 352.171806
L 622.636364 352.159062
" clip-path="url(#p45157ff51b)" style="fill: none; stroke: #8c564b; stroke-width: 1.5; stroke-linecap: square"/>
    <defs>
     <path id="mf7ce7304ff" d="M 0 3
C 0.795609 3 1.55874 2.683901 2.12132 2.12132
C 2.683901 1.55874 3 0.795609 3 0
C 3 -0.795609 2.683901 -1.55874 2.12132 -2.12132
C 1.55874 -2.683901 0.795609 -3 0 -3
C -0.795609 -3 -1.55874 -2.683901 -2.12132 -2.12132
C -2.683901 -1.55874 -3 -0.795609 -3 0
C -3 0.795609 -2.683901 1.55874 -2.12132 2.12132
C -1.55874 2.683901 -0.795609 3 0 3
z
" style="stroke: #8c564b"/>
    </defs>
    <g clip-path="url(#p45157ff51b)">
     <use xlink:href="#mf7ce7304ff" x="115.363636" y="369.36" style="fill: #8c564b; stroke: #8c564b"/>
     <use xlink:href="#mf7ce7304ff" x="145.203209" y="369.33119" style="fill: #8c564b; stroke: #8c564b"/>
     <use xlink:href="#mf7ce7304ff" x="175.042781" y="363.371478" style="fill: #8c564b; stroke: #8c564b"/>
     <use xlink:href="#mf7ce7304ff" x="204.882353" y="363.444569" style="fill: #8c564b; stroke: #8c564b"/>
     <use xlink:href="#mf7ce7304ff" x="234.721925" y="362.754295" style="fill: #8c564b; stroke: #8c564b"/>
     <use xlink:href="#mf7ce7304ff" x="264.561497" y="364.845204" style="fill: #8c564b; stroke: #8c564b"/>
     <use xlink:href="#mf7ce7304ff" x="294.40107" y="360.773808" style="fill: #8c564b; stroke: #8c564b"/>
     <use xlink:href="#mf7ce7304ff" x="324.240642" y="359.744226" style="fill: #8c564b; stroke: #8c564b"/>
     <use xlink:href="#mf7ce7304ff" x="354.080214" y="361.238925" style="fill: #8c564b; stroke: #8c564b"/>
     <use xlink:href="#mf7ce7304ff" x="383.919786" y="356.176856" style="fill: #8c564b; stroke: #8c564b"/>
     <use xlink:href="#mf7ce7304ff" x="413.759358" y="353.422127" style="fill: #8c564b; stroke: #8c564b"/>
     <use xlink:href="#mf7ce7304ff" x="443.59893" y="352.494687" style="fill: #8c564b; stroke: #8c564b"/>
     <use xlink:href="#mf7ce7304ff" x="473.438503" y="352.335878" style="fill: #8c564b; stroke: #8c564b"/>
     <use xlink:href="#mf7ce7304ff" x="503.278075" y="352.360258" style="fill: #8c564b; stroke: #8c564b"/>
     <use xlink:href="#mf7ce7304ff" x="533.117647" y="352.556825" style="fill: #8c564b; stroke: #8c564b"/>
     <use xlink:href="#mf7ce7304ff" x="562.957219" y="352.747852" style="fill: #8c564b; stroke: #8c564b"/>
     <use xlink:href="#mf7ce7304ff" x="592.796791" y="352.171806" style="fill: #8c564b; stroke: #8c564b"/>
     <use xlink:href="#mf7ce7304ff" x="622.636364" y="352.159062" style="fill: #8c564b; stroke: #8c564b"/>
    </g>
   </g>
   <g id="line2d_36">
    <path d="M 115.363636 367.730153
L 145.203209 368.05629
L 175.042781 362.357182
L 204.882353 363.263183
L 234.721925 361.474519
L 264.561497 361.308481
L 294.40107 358.221246
L 324.240642 352.735909
L 354.080214 354.883509
L 383.919786 351.638436
L 413.759358 350.049161
L 443.59893 349.664664
L 473.438503 349.616788
L 503.278075 349.010035
L 533.117647 349.030894
L 562.957219 348.359877
L 592.796791 348.426883
L 622.636364 349.158064
" clip-path="url(#p45157ff51b)" style="fill: none; stroke: #7f7f7f; stroke-width: 1.5; stroke-linecap: square"/>
    <defs>
     <path id="m8c5570bf21" d="M 0 3
C 0.795609 3 1.55874 2.683901 2.12132 2.12132
C 2.683901 1.55874 3 0.795609 3 0
C 3 -0.795609 2.683901 -1.55874 2.12132 -2.12132
C 1.55874 -2.683901 0.795609 -3 0 -3
C -0.795609 -3 -1.55874 -2.683901 -2.12132 -2.12132
C -2.683901 -1.55874 -3 -0.795609 -3 0
C -3 0.795609 -2.683901 1.55874 -2.12132 2.12132
C -1.55874 2.683901 -0.795609 3 0 3
z
" style="stroke: #7f7f7f"/>
    </defs>
    <g clip-path="url(#p45157ff51b)">
     <use xlink:href="#m8c5570bf21" x="115.363636" y="367.730153" style="fill: #7f7f7f; stroke: #7f7f7f"/>
     <use xlink:href="#m8c5570bf21" x="145.203209" y="368.05629" style="fill: #7f7f7f; stroke: #7f7f7f"/>
     <use xlink:href="#m8c5570bf21" x="175.042781" y="362.357182" style="fill: #7f7f7f; stroke: #7f7f7f"/>
     <use xlink:href="#m8c5570bf21" x="204.882353" y="363.263183" style="fill: #7f7f7f; stroke: #7f7f7f"/>
     <use xlink:href="#m8c5570bf21" x="234.721925" y="361.474519" style="fill: #7f7f7f; stroke: #7f7f7f"/>
     <use xlink:href="#m8c5570bf21" x="264.561497" y="361.308481" style="fill: #7f7f7f; stroke: #7f7f7f"/>
     <use xlink:href="#m8c5570bf21" x="294.40107" y="358.221246" style="fill: #7f7f7f; stroke: #7f7f7f"/>
     <use xlink:href="#m8c5570bf21" x="324.240642" y="352.735909" style="fill: #7f7f7f; stroke: #7f7f7f"/>
     <use xlink:href="#m8c5570bf21" x="354.080214" y="354.883509" style="fill: #7f7f7f; stroke: #7f7f7f"/>
     <use xlink:href="#m8c5570bf21" x="383.919786" y="351.638436" style="fill: #7f7f7f; stroke: #7f7f7f"/>
     <use xlink:href="#m8c5570bf21" x="413.759358" y="350.049161" style="fill: #7f7f7f; stroke: #7f7f7f"/>
     <use xlink:href="#m8c5570bf21" x="443.59893" y="349.664664" style="fill: #7f7f7f; stroke: #7f7f7f"/>
     <use xlink:href="#m8c5570bf21" x="473.438503" y="349.616788" style="fill: #7f7f7f; stroke: #7f7f7f"/>
     <use xlink:href="#m8c5570bf21" x="503.278075" y="349.010035" style="fill: #7f7f7f; stroke: #7f7f7f"/>
     <use xlink:href="#m8c5570bf21" x="533.117647" y="349.030894" style="fill: #7f7f7f; stroke: #7f7f7f"/>
     <use xlink:href="#m8c5570bf21" x="562.957219" y="348.359877" style="fill: #7f7f7f; stroke: #7f7f7f"/>
     <use xlink:href="#m8c5570bf21" x="592.796791" y="348.426883" style="fill: #7f7f7f; stroke: #7f7f7f"/>
     <use xlink:href="#m8c5570bf21" x="622.636364" y="349.158064" style="fill: #7f7f7f; stroke: #7f7f7f"/>
    </g>
   </g>
   <g id="line2d_37">
    <path d="M 115.363636 280.709099
L 145.203209 267.998159
L 175.042781 216.725444
L 204.882353 213.710422
L 234.721925 219.805705
L 264.561497 151.723873
L 294.40107 66.96
L 324.240642 179.317739
L 354.080214 304.892322
L 383.919786 317.225615
L 413.759358 315.505115
L 443.59893 314.241192
L 473.438503 313.444981
L 503.278075 313.77988
L 533.117647 313.272431
L 562.957219 313.501086
L 592.796791 313.209215
L 622.636364 314.423108
" clip-path="url(#p45157ff51b)" style="fill: none; stroke: #17becf; stroke-width: 1.5; stroke-linecap: square"/>
    <defs>
     <path id="m0653d81deb" d="M 0 3
C 0.795609 3 1.55874 2.683901 2.12132 2.12132
C 2.683901 1.55874 3 0.795609 3 0
C 3 -0.795609 2.683901 -1.55874 2.12132 -2.12132
C 1.55874 -2.683901 0.795609 -3 0 -3
C -0.795609 -3 -1.55874 -2.683901 -2.12132 -2.12132
C -2.683901 -1.55874 -3 -0.795609 -3 0
C -3 0.795609 -2.683901 1.55874 -2.12132 2.12132
C -1.55874 2.683901 -0.795609 3 0 3
z
" style="stroke: #17becf"/>
    </defs>
    <g clip-path="url(#p45157ff51b)">
     <use xlink:href="#m0653d81deb" x="115.363636" y="280.709099" style="fill: #17becf; stroke: #17becf"/>
     <use xlink:href="#m0653d81deb" x="145.203209" y="267.998159" style="fill: #17becf; stroke: #17becf"/>
     <use xlink:href="#m0653d81deb" x="175.042781" y="216.725444" style="fill: #17becf; stroke: #17becf"/>
     <use xlink:href="#m0653d81deb" x="204.882353" y="213.710422" style="fill: #17becf; stroke: #17becf"/>
     <use xlink:href="#m0653d81deb" x="234.721925" y="219.805705" style="fill: #17becf; stroke: #17becf"/>
     <use xlink:href="#m0653d81deb" x="264.561497" y="151.723873" style="fill: #17becf; stroke: #17becf"/>
     <use xlink:href="#m0653d81deb" x="294.40107" y="66.96" style="fill: #17becf; stroke: #17becf"/>
     <use xlink:href="#m0653d81deb" x="324.240642" y="179.317739" style="fill: #17becf; stroke: #17becf"/>
     <use xlink:href="#m0653d81deb" x="354.080214" y="304.892322" style="fill: #17becf; stroke: #17becf"/>
     <use xlink:href="#m0653d81deb" x="383.919786" y="317.225615" style="fill: #17becf; stroke: #17becf"/>
     <use xlink:href="#m0653d81deb" x="413.759358" y="315.505115" style="fill: #17becf; stroke: #17becf"/>
     <use xlink:href="#m0653d81deb" x="443.59893" y="314.241192" style="fill: #17becf; stroke: #17becf"/>
     <use xlink:href="#m0653d81deb" x="473.438503" y="313.444981" style="fill: #17becf; stroke: #17becf"/>
     <use xlink:href="#m0653d81deb" x="503.278075" y="313.77988" style="fill: #17becf; stroke: #17becf"/>
     <use xlink:href="#m0653d81deb" x="533.117647" y="313.272431" style="fill: #17becf; stroke: #17becf"/>
     <use xlink:href="#m0653d81deb" x="562.957219" y="313.501086" style="fill: #17becf; stroke: #17becf"/>
     <use xlink:href="#m0653d81deb" x="592.796791" y="313.209215" style="fill: #17becf; stroke: #17becf"/>
     <use xlink:href="#m0653d81deb" x="622.636364" y="314.423108" style="fill: #17becf; stroke: #17becf"/>
    </g>
   </g>
   <g id="line2d_38">
    <path d="M 90 350.118749
L 648 350.118749
" clip-path="url(#p45157ff51b)" style="fill: none; stroke-dasharray: 2.96,1.28; stroke-dashoffset: 0; stroke: #ff0000; stroke-width: 0.8"/>
   </g>
   <g id="patch_3">
    <path d="M 90 384.48
L 90 51.84
" style="fill: none; stroke: #000000; stroke-width: 0.8; stroke-linejoin: miter; stroke-linecap: square"/>
   </g>
   <g id="patch_4">
    <path d="M 648 384.48
L 648 51.84
" style="fill: none; stroke: #000000; stroke-width: 0.8; stroke-linejoin: miter; stroke-linecap: square"/>
   </g>
   <g id="patch_5">
    <path d="M 90 384.48
L 648 384.48
" style="fill: none; stroke: #000000; stroke-width: 0.8; stroke-linejoin: miter; stroke-linecap: square"/>
   </g>
   <g id="patch_6">
    <path d="M 90 51.84
L 648 51.84
" style="fill: none; stroke: #000000; stroke-width: 0.8; stroke-linejoin: miter; stroke-linecap: square"/>
   </g>
   <g id="text_19">
    <!-- Speedup Comparison for: instantiateAndSortTrivialShapes -->
    <g transform="translate(195.195 45.84) scale(0.12 -0.12)">
     <defs>
      <path id="DejaVuSans-43" d="M 4122 4306
L 4122 3641
Q 3803 3938 3442 4084
Q 3081 4231 2675 4231
Q 1875 4231 1450 3742
Q 1025 3253 1025 2328
Q 1025 1406 1450 917
Q 1875 428 2675 428
Q 3081 428 3442 575
Q 3803 722 4122 1019
L 4122 359
Q 3791 134 3420 21
Q 3050 -91 2638 -91
Q 1578 -91 968 557
Q 359 1206 359 2328
Q 359 3453 968 4101
Q 1578 4750 2638 4750
Q 3056 4750 3426 4639
Q 3797 4528 4122 4306
z
" transform="scale(0.015625)"/>
      <path id="DejaVuSans-6e" d="M 3513 2113
L 3513 0
L 2938 0
L 2938 2094
Q 2938 2591 2744 2837
Q 2550 3084 2163 3084
Q 1697 3084 1428 2787
Q 1159 2491 1159 1978
L 1159 0
L 581 0
L 581 3500
L 1159 3500
L 1159 2956
Q 1366 3272 1645 3428
Q 1925 3584 2291 3584
Q 2894 3584 3203 3211
Q 3513 2838 3513 2113
z
" transform="scale(0.015625)"/>
      <path id="DejaVuSans-66" d="M 2375 4863
L 2375 4384
L 1825 4384
Q 1516 4384 1395 4259
Q 1275 4134 1275 3809
L 1275 3500
L 2222 3500
L 2222 3053
L 1275 3053
L 1275 0
L 697 0
L 697 3053
L 147 3053
L 147 3500
L 697 3500
L 697 3744
Q 697 4328 969 4595
Q 1241 4863 1831 4863
L 2375 4863
z
" transform="scale(0.015625)"/>
      <path id="DejaVuSans-3a" d="M 750 794
L 1409 794
L 1409 0
L 750 0
L 750 794
z
M 750 3309
L 1409 3309
L 1409 2516
L 750 2516
L 750 3309
z
" transform="scale(0.015625)"/>
      <path id="DejaVuSans-41" d="M 2188 4044
L 1331 1722
L 3047 1722
L 2188 4044
z
M 1831 4666
L 2547 4666
L 4325 0
L 3669 0
L 3244 1197
L 1141 1197
L 716 0
L 50 0
L 1831 4666
z
" transform="scale(0.015625)"/>
     </defs>
     <use xlink:href="#DejaVuSans-53"/>
     <use xlink:href="#DejaVuSans-70" transform="translate(63.476562 0)"/>
     <use xlink:href="#DejaVuSans-65" transform="translate(126.953125 0)"/>
     <use xlink:href="#DejaVuSans-65" transform="translate(188.476562 0)"/>
     <use xlink:href="#DejaVuSans-64" transform="translate(250 0)"/>
     <use xlink:href="#DejaVuSans-75" transform="translate(313.476562 0)"/>
     <use xlink:href="#DejaVuSans-70" transform="translate(376.855469 0)"/>
     <use xlink:href="#DejaVuSans-20" transform="translate(440.332031 0)"/>
     <use xlink:href="#DejaVuSans-43" transform="translate(472.119141 0)"/>
     <use xlink:href="#DejaVuSans-6f" transform="translate(541.943359 0)"/>
     <use xlink:href="#DejaVuSans-6d" transform="translate(603.125 0)"/>
     <use xlink:href="#DejaVuSans-70" transform="translate(700.537109 0)"/>
     <use xlink:href="#DejaVuSans-61" transform="translate(764.013672 0)"/>
     <use xlink:href="#DejaVuSans-72" transform="translate(825.292969 0)"/>
     <use xlink:href="#DejaVuSans-69" transform="translate(866.40625 0)"/>
     <use xlink:href="#DejaVuSans-73" transform="translate(894.189453 0)"/>
     <use xlink:href="#DejaVuSans-6f" transform="translate(946.289062 0)"/>
     <use xlink:href="#DejaVuSans-6e" transform="translate(1007.470703 0)"/>
     <use xlink:href="#DejaVuSans-20" transform="translate(1070.849609 0)"/>
     <use xlink:href="#DejaVuSans-66" transform="translate(1102.636719 0)"/>
     <use xlink:href="#DejaVuSans-6f" transform="translate(1137.841797 0)"/>
     <use xlink:href="#DejaVuSans-72" transform="translate(1199.023438 0)"/>
     <use xlink:href="#DejaVuSans-3a" transform="translate(1238.386719 0)"/>
     <use xlink:href="#DejaVuSans-20" transform="translate(1272.078125 0)"/>
     <use xlink:href="#DejaVuSans-69" transform="translate(1303.865234 0)"/>
     <use xlink:href="#DejaVuSans-6e" transform="translate(1331.648438 0)"/>
     <use xlink:href="#DejaVuSans-73" transform="translate(1395.027344 0)"/>
     <use xlink:href="#DejaVuSans-74" transform="translate(1447.126953 0)"/>
     <use xlink:href="#DejaVuSans-61" transform="translate(1486.335938 0)"/>
     <use xlink:href="#DejaVuSans-6e" transform="translate(1547.615234 0)"/>
     <use xlink:href="#DejaVuSans-74" transform="translate(1610.994141 0)"/>
     <use xlink:href="#DejaVuSans-69" transform="translate(1650.203125 0)"/>
     <use xlink:href="#DejaVuSans-61" transform="translate(1677.986328 0)"/>
     <use xlink:href="#DejaVuSans-74" transform="translate(1739.265625 0)"/>
     <use xlink:href="#DejaVuSans-65" transform="translate(1778.474609 0)"/>
     <use xlink:href="#DejaVuSans-41" transform="translate(1839.998047 0)"/>
     <use xlink:href="#DejaVuSans-6e" transform="translate(1908.40625 0)"/>
     <use xlink:href="#DejaVuSans-64" transform="translate(1971.785156 0)"/>
     <use xlink:href="#DejaVuSans-53" transform="translate(2035.261719 0)"/>
     <use xlink:href="#DejaVuSans-6f" transform="translate(2098.738281 0)"/>
     <use xlink:href="#DejaVuSans-72" transform="translate(2159.919922 0)"/>
     <use xlink:href="#DejaVuSans-74" transform="translate(2201.033203 0)"/>
     <use xlink:href="#DejaVuSans-54" transform="translate(2240.242188 0)"/>
     <use xlink:href="#DejaVuSans-72" transform="translate(2286.576172 0)"/>
     <use xlink:href="#DejaVuSans-69" transform="translate(2327.689453 0)"/>
     <use xlink:href="#DejaVuSans-76" transform="translate(2355.472656 0)"/>
     <use xlink:href="#DejaVuSans-69" transform="translate(2414.652344 0)"/>
     <use xlink:href="#DejaVuSans-61" transform="translate(2442.435547 0)"/>
     <use xlink:href="#DejaVuSans-6c" transform="translate(2503.714844 0)"/>
     <use xlink:href="#DejaVuSans-53" transform="translate(2531.498047 0)"/>
     <use xlink:href="#DejaVuSans-68" transform="translate(2594.974609 0)"/>
     <use xlink:href="#DejaVuSans-61" transform="translate(2658.353516 0)"/>
     <use xlink:href="#DejaVuSans-70" transform="translate(2719.632812 0)"/>
     <use xlink:href="#DejaVuSans-65" transform="translate(2783.109375 0)"/>
     <use xlink:href="#DejaVuSans-73" transform="translate(2844.632812 0)"/>
    </g>
   </g>
   <g id="legend_1">
    <g id="patch_7">
     <path d="M 543.661486 120.036931
L 643.947 120.036931
Q 645.105 120.036931 645.105 118.878931
L 645.105 55.893
Q 645.105 54.735 643.947 54.735
L 543.661486 54.735
Q 542.503486 54.735 542.503486 55.893
L 542.503486 118.878931
Q 542.503486 120.036931 543.661486 120.036931
z
" style="fill: #ffffff; opacity: 0.8; stroke: #cccccc; stroke-linejoin: miter"/>
    </g>
    <g id="text_20">
     <!-- Container -->
     <g transform="translate(569.370649 64.649437) scale(0.1 -0.1)">
      <use xlink:href="#DejaVuSans-43"/>
      <use xlink:href="#DejaVuSans-6f" transform="translate(69.824219 0)"/>
      <use xlink:href="#DejaVuSans-6e" transform="translate(131.005859 0)"/>
      <use xlink:href="#DejaVuSans-74" transform="translate(194.384766 0)"/>
      <use xlink:href="#DejaVuSans-61" transform="translate(233.59375 0)"/>
      <use xlink:href="#DejaVuSans-69" transform="translate(294.873047 0)"/>
      <use xlink:href="#DejaVuSans-6e" transform="translate(322.65625 0)"/>
      <use xlink:href="#DejaVuSans-65" transform="translate(386.035156 0)"/>
      <use xlink:href="#DejaVuSans-72" transform="translate(447.558594 0)"/>
     </g>
    </g>
    <g id="line2d_39">
     <path d="M 544.819486 71.99712
L 550.609486 71.99712
L 556.399486 71.99712
" style="fill: none; stroke: #1f77b4; stroke-width: 1.5; stroke-linecap: square"/>
     <g>
      <use xlink:href="#m799efc7bb5" x="550.609486" y="71.99712" style="fill: #1f77b4; stroke: #1f77b4"/>
     </g>
    </g>
    <g id="text_21">
     <!-- WoidTrivialShapeShared -->
     <g transform="translate(561.031486 74.02362) scale(0.0579 -0.0579)">
      <defs>
       <path id="DejaVuSans-57" d="M 213 4666
L 850 4666
L 1831 722
L 2809 4666
L 3519 4666
L 4500 722
L 5478 4666
L 6119 4666
L 4947 0
L 4153 0
L 3169 4050
L 2175 0
L 1381 0
L 213 4666
z
" transform="scale(0.015625)"/>
      </defs>
      <use xlink:href="#DejaVuSans-57"/>
      <use xlink:href="#DejaVuSans-6f" transform="translate(93.001953 0)"/>
      <use xlink:href="#DejaVuSans-69" transform="translate(154.183594 0)"/>
      <use xlink:href="#DejaVuSans-64" transform="translate(181.966797 0)"/>
      <use xlink:href="#DejaVuSans-54" transform="translate(245.443359 0)"/>
      <use xlink:href="#DejaVuSans-72" transform="translate(291.777344 0)"/>
      <use xlink:href="#DejaVuSans-69" transform="translate(332.890625 0)"/>
      <use xlink:href="#DejaVuSans-76" transform="translate(360.673828 0)"/>
      <use xlink:href="#DejaVuSans-69" transform="translate(419.853516 0)"/>
      <use xlink:href="#DejaVuSans-61" transform="translate(447.636719 0)"/>
      <use xlink:href="#DejaVuSans-6c" transform="translate(508.916016 0)"/>
      <use xlink:href="#DejaVuSans-53" transform="translate(536.699219 0)"/>
      <use xlink:href="#DejaVuSans-68" transform="translate(600.175781 0)"/>
      <use xlink:href="#DejaVuSans-61" transform="translate(663.554688 0)"/>
      <use xlink:href="#DejaVuSans-70" transform="translate(724.833984 0)"/>
      <use xlink:href="#DejaVuSans-65" transform="translate(788.310547 0)"/>
      <use xlink:href="#DejaVuSans-53" transform="translate(849.833984 0)"/>
      <use xlink:href="#DejaVuSans-68" transform="translate(913.310547 0)"/>
      <use xlink:href="#DejaVuSans-61" transform="translate(976.689453 0)"/>
      <use xlink:href="#DejaVuSans-72" transform="translate(1037.96875 0)"/>
      <use xlink:href="#DejaVuSans-65" transform="translate(1076.832031 0)"/>
      <use xlink:href="#DejaVuSans-64" transform="translate(1138.355469 0)"/>
     </g>
    </g>
    <g id="line2d_40">
     <path d="M 544.819486 80.495755
L 550.609486 80.495755
L 556.399486 80.495755
" style="fill: none; stroke: #2ca02c; stroke-width: 1.5; stroke-linecap: square"/>
     <g>
      <use xlink:href="#m19f6e2baad" x="550.609486" y="80.495755" style="fill: #2ca02c; stroke: #2ca02c"/>
     </g>
    </g>
    <g id="text_22">
     <!-- WoidTrivialShapeDedicated -->
     <g transform="translate(561.031486 82.522255) scale(0.0579 -0.0579)">
      <defs>
       <path id="DejaVuSans-44" d="M 1259 4147
L 1259 519
L 2022 519
Q 2988 519 3436 956
Q 3884 1394 3884 2338
Q 3884 3275 3436 3711
Q 2988 4147 2022 4147
L 1259 4147
z
M 628 4666
L 1925 4666
Q 3281 4666 3915 4102
Q 4550 3538 4550 2338
Q 4550 1131 3912 565
Q 3275 0 1925 0
L 628 0
L 628 4666
z
" transform="scale(0.015625)"/>
      </defs>
      <use xlink:href="#DejaVuSans-57"/>
      <use xlink:href="#DejaVuSans-6f" transform="translate(93.001953 0)"/>
      <use xlink:href="#DejaVuSans-69" transform="translate(154.183594 0)"/>
      <use xlink:href="#DejaVuSans-64" transform="translate(181.966797 0)"/>
      <use xlink:href="#DejaVuSans-54" transform="translate(245.443359 0)"/>
      <use xlink:href="#DejaVuSans-72" transform="translate(291.777344 0)"/>
      <use xlink:href="#DejaVuSans-69" transform="translate(332.890625 0)"/>
      <use xlink:href="#DejaVuSans-76" transform="translate(360.673828 0)"/>
      <use xlink:href="#DejaVuSans-69" transform="translate(419.853516 0)"/>
      <use xlink:href="#DejaVuSans-61" transform="translate(447.636719 0)"/>
      <use xlink:href="#DejaVuSans-6c" transform="translate(508.916016 0)"/>
      <use xlink:href="#DejaVuSans-53" transform="translate(536.699219 0)"/>
      <use xlink:href="#DejaVuSans-68" transform="translate(600.175781 0)"/>
      <use xlink:href="#DejaVuSans-61" transform="translate(663.554688 0)"/>
      <use xlink:href="#DejaVuSans-70" transform="translate(724.833984 0)"/>
      <use xlink:href="#DejaVuSans-65" transform="translate(788.310547 0)"/>
      <use xlink:href="#DejaVuSans-44" transform="translate(849.833984 0)"/>
      <use xlink:href="#DejaVuSans-65" transform="translate(926.835938 0)"/>
      <use xlink:href="#DejaVuSans-64" transform="translate(988.359375 0)"/>
      <use xlink:href="#DejaVuSans-69" transform="translate(1051.835938 0)"/>
      <use xlink:href="#DejaVuSans-63" transform="translate(1079.619141 0)"/>
      <use xlink:href="#DejaVuSans-61" transform="translate(1134.599609 0)"/>
      <use xlink:href="#DejaVuSans-74" transform="translate(1195.878906 0)"/>
      <use xlink:href="#DejaVuSans-65" transform="translate(1235.087891 0)"/>
      <use xlink:href="#DejaVuSans-64" transform="translate(1296.611328 0)"/>
     </g>
    </g>
    <g id="line2d_41">
     <path d="M 544.819486 88.994389
L 550.609486 88.994389
L 556.399486 88.994389
" style="fill: none; stroke: #8c564b; stroke-width: 1.5; stroke-linecap: square"/>
     <g>
      <use xlink:href="#mf7ce7304ff" x="550.609486" y="88.994389" style="fill: #8c564b; stroke: #8c564b"/>
     </g>
    </g>
    <g id="text_23">
     <!-- WoidShapeShared -->
     <g transform="translate(561.031486 91.020889) scale(0.0579 -0.0579)">
      <use xlink:href="#DejaVuSans-57"/>
      <use xlink:href="#DejaVuSans-6f" transform="translate(93.001953 0)"/>
      <use xlink:href="#DejaVuSans-69" transform="translate(154.183594 0)"/>
      <use xlink:href="#DejaVuSans-64" transform="translate(181.966797 0)"/>
      <use xlink:href="#DejaVuSans-53" transform="translate(245.443359 0)"/>
      <use xlink:href="#DejaVuSans-68" transform="translate(308.919922 0)"/>
      <use xlink:href="#DejaVuSans-61" transform="translate(372.298828 0)"/>
      <use xlink:href="#DejaVuSans-70" transform="translate(433.578125 0)"/>
      <use xlink:href="#DejaVuSans-65" transform="translate(497.054688 0)"/>
      <use xlink:href="#DejaVuSans-53" transform="translate(558.578125 0)"/>
      <use xlink:href="#DejaVuSans-68" transform="translate(622.054688 0)"/>
      <use xlink:href="#DejaVuSans-61" transform="translate(685.433594 0)"/>
      <use xlink:href="#DejaVuSans-72" transform="translate(746.712891 0)"/>
      <use xlink:href="#DejaVuSans-65" transform="translate(785.576172 0)"/>
      <use xlink:href="#DejaVuSans-64" transform="translate(847.099609 0)"/>
     </g>
    </g>
    <g id="line2d_42">
     <path d="M 544.819486 97.493023
L 550.609486 97.493023
L 556.399486 97.493023
" style="fill: none; stroke: #7f7f7f; stroke-width: 1.5; stroke-linecap: square"/>
     <g>
      <use xlink:href="#m8c5570bf21" x="550.609486" y="97.493023" style="fill: #7f7f7f; stroke: #7f7f7f"/>
     </g>
    </g>
    <g id="text_24">
     <!-- WoidShapeDedicated -->
     <g transform="translate(561.031486 99.519523) scale(0.0579 -0.0579)">
      <use xlink:href="#DejaVuSans-57"/>
      <use xlink:href="#DejaVuSans-6f" transform="translate(93.001953 0)"/>
      <use xlink:href="#DejaVuSans-69" transform="translate(154.183594 0)"/>
      <use xlink:href="#DejaVuSans-64" transform="translate(181.966797 0)"/>
      <use xlink:href="#DejaVuSans-53" transform="translate(245.443359 0)"/>
      <use xlink:href="#DejaVuSans-68" transform="translate(308.919922 0)"/>
      <use xlink:href="#DejaVuSans-61" transform="translate(372.298828 0)"/>
      <use xlink:href="#DejaVuSans-70" transform="translate(433.578125 0)"/>
      <use xlink:href="#DejaVuSans-65" transform="translate(497.054688 0)"/>
      <use xlink:href="#DejaVuSans-44" transform="translate(558.578125 0)"/>
      <use xlink:href="#DejaVuSans-65" transform="translate(635.580078 0)"/>
      <use xlink:href="#DejaVuSans-64" transform="translate(697.103516 0)"/>
      <use xlink:href="#DejaVuSans-69" transform="translate(760.580078 0)"/>
      <use xlink:href="#DejaVuSans-63" transform="translate(788.363281 0)"/>
      <use xlink:href="#DejaVuSans-61" transform="translate(843.34375 0)"/>
      <use xlink:href="#DejaVuSans-74" transform="translate(904.623047 0)"/>
      <use xlink:href="#DejaVuSans-65" transform="translate(943.832031 0)"/>
      <use xlink:href="#DejaVuSans-64" transform="translate(1005.355469 0)"/>
     </g>
    </g>
    <g id="line2d_43">
     <path d="M 544.819486 105.991658
L 550.609486 105.991658
L 556.399486 105.991658
" style="fill: none; stroke: #17becf; stroke-width: 1.5; stroke-linecap: square"/>
     <g>
      <use xlink:href="#m0653d81deb" x="550.609486" y="105.991658" style="fill: #17becf; stroke: #17becf"/>
     </g>
    </g>
    <g id="text_25">
     <!-- WoidTrivialSealedShape -->
     <g transform="translate(561.031486 108.018158) scale(0.0579 -0.0579)">
      <use xlink:href="#DejaVuSans-57"/>
      <use xlink:href="#DejaVuSans-6f" transform="translate(93.001953 0)"/>
      <use xlink:href="#DejaVuSans-69" transform="translate(154.183594 0)"/>
      <use xlink:href="#DejaVuSans-64" transform="translate(181.966797 0)"/>
      <use xlink:href="#DejaVuSans-54" transform="translate(245.443359 0)"/>
      <use xlink:href="#DejaVuSans-72" transform="translate(291.777344 0)"/>
      <use xlink:href="#DejaVuSans-69" transform="translate(332.890625 0)"/>
      <use xlink:href="#DejaVuSans-76" transform="translate(360.673828 0)"/>
      <use xlink:href="#DejaVuSans-69" transform="translate(419.853516 0)"/>
      <use xlink:href="#DejaVuSans-61" transform="translate(447.636719 0)"/>
      <use xlink:href="#DejaVuSans-6c" transform="translate(508.916016 0)"/>
      <use xlink:href="#DejaVuSans-53" transform="translate(536.699219 0)"/>
      <use xlink:href="#DejaVuSans-65" transform="translate(600.175781 0)"/>
      <use xlink:href="#DejaVuSans-61" transform="translate(661.699219 0)"/>
      <use xlink:href="#DejaVuSans-6c" transform="translate(722.978516 0)"/>
      <use xlink:href="#DejaVuSans-65" transform="translate(750.761719 0)"/>
      <use xlink:href="#DejaVuSans-64" transform="translate(812.285156 0)"/>
      <use xlink:href="#DejaVuSans-53" transform="translate(875.761719 0)"/>
      <use xlink:href="#DejaVuSans-68" transform="translate(939.238281 0)"/>
      <use xlink:href="#DejaVuSans-61" transform="translate(1002.617188 0)"/>
      <use xlink:href="#DejaVuSans-70" transform="translate(1063.896484 0)"/>
      <use xlink:href="#DejaVuSans-65" transform="translate(1127.373047 0)"/>
     </g>
    </g>
    <g id="line2d_44">
     <path d="M 544.819486 114.490292
L 550.609486 114.490292
L 556.399486 114.490292
" style="fill: none; stroke-dasharray: 2.96,1.28; stroke-dashoffset: 0; stroke: #ff0000; stroke-width: 0.8"/>
    </g>
    <g id="text_26">
     <!-- Baseline (ProxyTrivialShape) -->
     <g transform="translate(561.031486 116.516792) scale(0.0579 -0.0579)">
      <defs>
       <path id="DejaVuSans-42" d="M 1259 2228
L 1259 519
L 2272 519
Q 2781 519 3026 730
Q 3272 941 3272 1375
Q 3272 1813 3026 2020
Q 2781 2228 2272 2228
L 1259 2228
z
M 1259 4147
L 1259 2741
L 2194 2741
Q 2656 2741 2882 2914
Q 3109 3088 3109 3444
Q 3109 3797 2882 3972
Q 2656 4147 2194 4147
L 1259 4147
z
M 628 4666
L 2241 4666
Q 2963 4666 3353 4366
Q 3744 4066 3744 3513
Q 3744 3084 3544 2831
Q 3344 2578 2956 2516
Q 3422 2416 3680 2098
Q 3938 1781 3938 1306
Q 3938 681 3513 340
Q 3088 0 2303 0
L 628 0
L 628 4666
z
" transform="scale(0.015625)"/>
       <path id="DejaVuSans-28" d="M 1984 4856
Q 1566 4138 1362 3434
Q 1159 2731 1159 2009
Q 1159 1288 1364 580
Q 1569 -128 1984 -844
L 1484 -844
Q 1016 -109 783 600
Q 550 1309 550 2009
Q 550 2706 781 3412
Q 1013 4119 1484 4856
L 1984 4856
z
" transform="scale(0.015625)"/>
       <path id="DejaVuSans-29" d="M 513 4856
L 1013 4856
Q 1481 4119 1714 3412
Q 1947 2706 1947 2009
Q 1947 1309 1714 600
Q 1481 -109 1013 -844
L 513 -844
Q 928 -128 1133 580
Q 1338 1288 1338 2009
Q 1338 2731 1133 3434
Q 928 4138 513 4856
z
" transform="scale(0.015625)"/>
      </defs>
      <use xlink:href="#DejaVuSans-42"/>
      <use xlink:href="#DejaVuSans-61" transform="translate(68.603516 0)"/>
      <use xlink:href="#DejaVuSans-73" transform="translate(129.882812 0)"/>
      <use xlink:href="#DejaVuSans-65" transform="translate(181.982422 0)"/>
      <use xlink:href="#DejaVuSans-6c" transform="translate(243.505859 0)"/>
      <use xlink:href="#DejaVuSans-69" transform="translate(271.289062 0)"/>
      <use xlink:href="#DejaVuSans-6e" transform="translate(299.072266 0)"/>
      <use xlink:href="#DejaVuSans-65" transform="translate(362.451172 0)"/>
      <use xlink:href="#DejaVuSans-20" transform="translate(423.974609 0)"/>
      <use xlink:href="#DejaVuSans-28" transform="translate(455.761719 0)"/>
      <use xlink:href="#DejaVuSans-50" transform="translate(494.775391 0)"/>
      <use xlink:href="#DejaVuSans-72" transform="translate(553.328125 0)"/>
      <use xlink:href="#DejaVuSans-6f" transform="translate(592.191406 0)"/>
      <use xlink:href="#DejaVuSans-78" transform="translate(650.248047 0)"/>
      <use xlink:href="#DejaVuSans-79" transform="translate(709.427734 0)"/>
      <use xlink:href="#DejaVuSans-54" transform="translate(768.607422 0)"/>
      <use xlink:href="#DejaVuSans-72" transform="translate(814.941406 0)"/>
      <use xlink:href="#DejaVuSans-69" transform="translate(856.054688 0)"/>
      <use xlink:href="#DejaVuSans-76" transform="translate(883.837891 0)"/>
      <use xlink:href="#DejaVuSans-69" transform="translate(943.017578 0)"/>
      <use xlink:href="#DejaVuSans-61" transform="translate(970.800781 0)"/>
      <use xlink:href="#DejaVuSans-6c" transform="translate(1032.080078 0)"/>
      <use xlink:href="#DejaVuSans-53" transform="translate(1059.863281 0)"/>
      <use xlink:href="#DejaVuSans-68" transform="translate(1123.339844 0)"/>
      <use xlink:href="#DejaVuSans-61" transform="translate(1186.71875 0)"/>
      <use xlink:href="#DejaVuSans-70" transform="translate(1247.998047 0)"/>
      <use xlink:href="#DejaVuSans-65" transform="translate(1311.474609 0)"/>
      <use xlink:href="#DejaVuSans-29" transform="translate(1372.998047 0)"/>
     </g>
    </g>
   </g>
  </g>
 </g>
 <defs>
  <clipPath id="p45157ff51b">
   <rect x="90" y="51.84" width="558" height="332.64"/>
  </clipPath>
 </defs>
</svg>
